<?xml version="1.0" encoding="UTF-8"?>
<svg width="24px" height="24px" viewBox="0 0 24 24" version="1.1" xmlns="http://www.w3.org/2000/svg" xmlns:xlink="http://www.w3.org/1999/xlink">
    <!-- Generator: Sketch 51.3 (57544) - http://www.bohemiancoding.com/sketch -->
    <title>arrow-direction</title>
    <desc>Created with Sketch.</desc>
    <defs></defs>
    <g id="Symbols" stroke="none" stroke-width="1" fill="none" fill-rule="evenodd">
        <g id="icon/arrow/direction" fill="#000000" fill-rule="nonzero">
            <g id="direction-button-arrows">
                <path d="M23.6,11.187 L19.6,8.187 C19.2969824,7.95973676 18.8915704,7.92318079 18.5527864,8.09257281 C18.2140024,8.26196482 18,8.60822794 18,8.987 L18,10.237 C18,10.3750712 17.8880712,10.487 17.75,10.487 L13.75,10.487 C13.6119288,10.487 13.5,10.3750712 13.5,10.237 L13.5,6.237 C13.5,6.09892881 13.6119288,5.987 13.75,5.987 L15,5.987 C15.3787721,5.987 15.7250352,5.77299762 15.8944272,5.4342136 C16.0638192,5.09542957 16.0272632,4.69001765 15.8,4.387 L12.8,0.387 C12.6032066,0.147829198 12.3097262,0.00925223129 12,0.00925223129 C11.6902738,0.00925223129 11.3967934,0.147829198 11.2,0.387 L8.2,4.387 C7.97273676,4.69001765 7.93618079,5.09542957 8.10557281,5.4342136 C8.27496482,5.77299762 8.62122794,5.987 9,5.987 L10.25,5.987 C10.3880712,5.987 10.5,6.09892881 10.5,6.237 L10.5,10.237 C10.5,10.3750712 10.3880712,10.487 10.25,10.487 L6.25,10.487 C6.11192881,10.487 6,10.3750712 6,10.237 L6,8.987 C6,8.60822794 5.78599762,8.26196482 5.4472136,8.09257281 C5.10842957,7.92318079 4.70301765,7.95973676 4.4,8.187 L0.4,11.187 C0.148194157,11.3758544 -1.0123367e-16,11.6722427 0,11.987 C1.0123367e-16,12.3017573 0.148194157,12.5981456 0.4,12.787 L4.4,15.787 C4.70301765,16.0142632 5.10842957,16.0508192 5.4472136,15.8814272 C5.78599762,15.7120352 6,15.3657721 6,14.987 L6,13.737 C6,13.5989288 6.11192881,13.487 6.25,13.487 L10.25,13.487 C10.3880712,13.487 10.5,13.5989288 10.5,13.737 L10.5,17.737 C10.5,17.8750712 10.3880712,17.987 10.25,17.987 L9,17.987 C8.62122794,17.987 8.27496482,18.2010024 8.10557281,18.5397864 C7.93618079,18.8785704 7.97273676,19.2839824 8.2,19.587 L11.2,23.587 C11.3888544,23.8388058 11.6852427,23.987 12,23.987 C12.3147573,23.987 12.6111456,23.8388058 12.8,23.587 L15.8,19.587 C16.0272632,19.2839824 16.0638192,18.8785704 15.8944272,18.5397864 C15.7250352,18.2010024 15.3787721,17.987 15,17.987 L13.75,17.987 C13.6119288,17.987 13.5,17.8750712 13.5,17.737 L13.5,13.737 C13.5,13.5989288 13.6119288,13.487 13.75,13.487 L17.75,13.487 C17.8880712,13.487 18,13.5989288 18,13.737 L18,14.987 C18,15.3657721 18.2140024,15.7120352 18.5527864,15.8814272 C18.8915704,16.0508192 19.2969824,16.0142632 19.6,15.787 L23.6,12.787 C23.8518058,12.5981456 24,12.3017573 24,11.987 C24,11.6722427 23.8518058,11.3758544 23.6,11.187 Z" id="Shape"></path>
            </g>
        </g>
    </g>
</svg>