<?xml version="1.0" encoding="UTF-8"?>
<svg width="24px" height="24px" viewBox="0 0 24 24" version="1.1" xmlns="http://www.w3.org/2000/svg" xmlns:xlink="http://www.w3.org/1999/xlink">
    <!-- Generator: Sketch 51.3 (57544) - http://www.bohemiancoding.com/sketch -->
    <title>arrow-dual</title>
    <desc>Created with Sketch.</desc>
    <defs></defs>
    <g id="Symbols" stroke="none" stroke-width="1" fill="none" fill-rule="evenodd">
        <g id="icon/arrow/dual" fill="#000000" fill-rule="nonzero">
            <g id="keyboard-arrow-up" transform="translate(12.000000, 0.000000)">
                <path d="M11.485,5.062 L6.707,0.284 C6.30977074,-0.0907513369 5.68922926,-0.0907513369 5.292,0.284 L0.515,5.062 C0.229092084,5.34799425 0.143578094,5.77803662 0.298322022,6.15165456 C0.45306595,6.5252725 0.817604102,6.76891365 1.222,6.769 L4.25,6.769 C4.38807119,6.769 4.5,6.88092881 4.5,7.019 L4.5,22.492 C4.5,23.3204271 5.17157288,23.992 6,23.992 C6.82842712,23.992 7.5,23.3204271 7.5,22.492 L7.5,7.019 C7.49973285,6.95261434 7.52598627,6.88887053 7.5729284,6.8419284 C7.61987053,6.79498627 7.68361434,6.76873285 7.75,6.769 L10.778,6.769 C11.1823959,6.76891365 11.5469341,6.5252725 11.701678,6.15165456 C11.8564219,5.77803662 11.7709079,5.34799425 11.485,5.062 Z" id="Shape"></path>
            </g>
            <g id="keyboard-arrow-down">
                <path d="M11.7,17.838 C11.5451037,17.4644093 11.1804291,17.2208982 10.776,17.221 L7.75,17.221 C7.68361434,17.2212671 7.61987053,17.1950137 7.5729284,17.1480716 C7.52598627,17.1011295 7.49973285,17.0373857 7.5,16.971 L7.5,1.5 C7.5,0.671572875 6.82842712,5.07265313e-17 6,0 C5.17157288,-5.07265313e-17 4.5,0.671572875 4.5,1.5 L4.5,16.971 C4.5,17.1090712 4.38807119,17.221 4.25,17.221 L1.222,17.221 C0.817604102,17.2210863 0.45306595,17.4647275 0.298322022,17.8383454 C0.143578094,18.2119634 0.229092084,18.6420057 0.515,18.928 L5.292,23.706 C5.47956826,23.893777 5.73409075,23.9992867 5.9995,23.9992867 C6.26490925,23.9992867 6.51943174,23.893777 6.707,23.706 L11.485,18.928 C11.7704728,18.6415634 11.8553249,18.2113829 11.7,17.838 Z" id="Shape"></path>
            </g>
        </g>
    </g>
</svg>