<?xml version="1.0" encoding="UTF-8"?>
<svg width="24px" height="24px" viewBox="0 0 24 24" version="1.1" xmlns="http://www.w3.org/2000/svg" xmlns:xlink="http://www.w3.org/1999/xlink">
    <!-- Generator: Sketch 51.3 (57544) - http://www.bohemiancoding.com/sketch -->
    <title>cog</title>
    <desc>Created with Sketch.</desc>
    <defs></defs>
    <g id="Symbols" stroke="none" stroke-width="1" fill="none" fill-rule="evenodd">
        <g id="icon/utility/cog" fill="#000000" fill-rule="nonzero">
            <g id="cog-1">
                <path d="M22.421,9.763 L21.155,9.314 C20.7883923,9.18367553 20.4942269,8.90402992 20.3455276,8.54448274 C20.1968284,8.18493557 20.2075387,7.77920132 20.375,7.428 L20.951,6.215 C21.3815187,5.30734436 21.1946792,4.22701433 20.4843324,3.51666756 C19.7739857,2.80632078 18.6936556,2.61948132 17.786,3.05 L16.573,3.627 C16.2215972,3.79370192 15.8160326,3.80378323 15.4567813,3.65474638 C15.0975301,3.50570952 14.8182026,3.21149791 14.688,2.845 L14.238,1.58 C13.900619,0.63375765 13.0045897,0.00195488594 12,0.00195488594 C10.9954103,0.00195488594 10.099381,0.63375765 9.762,1.58 L9.312,2.846 C9.18158871,3.2123181 8.9021747,3.50629303 8.54294794,3.65512916 C8.18372119,3.80396528 7.77827204,3.79374532 7.427,3.627 L6.214,3.05 C5.30634436,2.61948132 4.22601433,2.80632078 3.51566756,3.51666756 C2.80532078,4.22701433 2.61848132,5.30734436 3.049,6.215 L3.625,7.428 C3.79213377,7.7792432 3.80267696,8.18484247 3.65401708,8.54429444 C3.50535719,8.90374642 3.21140542,9.18341458 2.845,9.314 L1.579,9.764 C0.6325139,10.1008765 0.00037852181,10.9968499 0.00037852181,12.0015 C0.00037852181,13.0061501 0.6325139,13.9021235 1.579,14.239 L2.845,14.689 C3.21134024,14.8193593 3.50529187,15.0988372 3.6539666,15.4581345 C3.80264134,15.8174318 3.79211583,16.2229003 3.625,16.574 L3.049,17.787 C2.61848132,18.6946556 2.80532078,19.7749857 3.51566756,20.4853324 C4.22601433,21.1956792 5.30634436,21.3825187 6.214,20.952 L7.427,20.376 C7.77818863,20.2085994 8.18390807,20.1980451 8.54332526,20.3469602 C8.90274246,20.4958752 9.18211111,20.7902777 9.312,21.157 L9.762,22.422 C10.099381,23.3682424 10.9954103,24.0000451 12,24.0000451 C13.0045897,24.0000451 13.900619,23.3682424 14.238,22.422 L14.688,21.156 C14.8183593,20.7896598 15.0978372,20.4957081 15.4571345,20.3470334 C15.8164318,20.1983587 16.2219003,20.2088842 16.573,20.376 L17.786,20.952 C18.6936556,21.3825187 19.7739857,21.1956792 20.4843324,20.4853324 C21.1946792,19.7749857 21.3815187,18.6946556 20.951,17.787 L20.375,16.574 C20.2078842,16.2229003 20.1973587,15.8174318 20.3460334,15.4581345 C20.4947081,15.0988372 20.7886598,14.8193593 21.155,14.689 L22.421,14.238 C23.3674861,13.9011235 23.9996215,13.0051501 23.9996215,12.0005 C23.9996215,10.9958499 23.3674861,10.0998765 22.421,9.763 Z M12,16.785 C10.0711859,16.7570187 8.33588181,15.6066618 7.559,13.841 C6.54620803,11.3885799 7.70918889,8.57908654 10.159,7.56 C12.6113171,6.57927376 15.3983228,7.73294592 16.44,10.16 C17.452792,12.6124201 16.2898111,15.4219135 13.84,16.441 C13.2568161,16.6808685 12.6304539,16.797971 12,16.785 Z" id="Shape"></path>
            </g>
        </g>
    </g>
</svg>