<?xml version="1.0" encoding="UTF-8"?>
<svg width="24px" height="24px" viewBox="0 0 24 24" version="1.1" xmlns="http://www.w3.org/2000/svg" xmlns:xlink="http://www.w3.org/1999/xlink">
    <!-- Generator: Sketch 51.3 (57544) - http://www.bohemiancoding.com/sketch -->
    <title>dashboard</title>
    <desc>Created with Sketch.</desc>
    <defs></defs>
    <g id="Symbols" stroke="none" stroke-width="1" fill="none" fill-rule="evenodd">
        <g id="icon/utility/dashboard" fill="#000000" fill-rule="nonzero">
            <g id="car-dashboard-speed">
                <path d="M12,0 C5.372583,-4.05812251e-16 8.11624501e-16,5.372583 0,12 C-8.11624501e-16,18.627417 5.372583,24 12,24 C18.627417,24 24,18.627417 24,12 C23.9928352,5.37555305 18.624447,0.00716484761 12,0 Z M5.145,8.91 L4.279,8.41 C3.92001491,8.20289322 3.79689322,7.74398509 4.004,7.385 C4.21110678,7.02601491 4.67001491,6.90289322 5.029,7.11 L5.895,7.61 C6.18964674,7.77960797 6.33335257,8.12619671 6.24516975,8.45453702 C6.15698692,8.78287732 5.85897481,9.01083325 5.519,9.01 C5.38765581,9.01054184 5.25854672,8.97602069 5.145,8.91 Z M5.25,11.991 C5.25,12.4052136 4.91421356,12.741 4.5,12.741 L3.5,12.741 C3.08578644,12.741 2.75,12.4052136 2.75,11.991 C2.75,11.5767864 3.08578644,11.241 3.5,11.241 L4.5,11.241 C4.91421356,11.241 5.25,11.5767864 5.25,11.991 Z M14.24,12 C14.24,13.2426407 13.2326407,14.25 11.99,14.25 C10.7473593,14.25 9.74,13.2426407 9.74,12 C9.74,10.7573593 10.7473593,9.75 11.99,9.75 C12.0154107,9.75013969 12.04079,9.75180937 12.066,9.755 C12.1580359,9.76426233 12.2476644,9.72194844 12.299,9.645 L15.699,4.571 C15.8972457,4.27248045 16.2400705,4.1028596 16.5976491,4.12637163 C16.9552277,4.14988366 17.2728905,4.36293387 17.4303409,4.68484167 C17.5877914,5.00674947 17.5609571,5.38829893 17.36,5.685 L13.993,10.71 C13.941921,10.7864503 13.9369283,10.8847686 13.98,10.966 C14.1496017,11.2843413 14.2388562,11.6392998 14.24,12 Z M12.758,4.558 C12.758,4.97221356 12.4222136,5.308 12.008,5.308 C11.5937864,5.308 11.258,4.97221356 11.258,4.558 L11.258,3.558 C11.258,3.14378644 11.5937864,2.808 12.008,2.808 C12.4222136,2.808 12.758,3.14378644 12.758,3.558 L12.758,4.558 Z M7.393,4.025 C7.56514979,3.92520591 7.76996723,3.89811713 7.96214135,3.94972639 C8.15431547,4.00133565 8.31800589,4.12738895 8.417,4.3 L8.917,5.166 C9.01687675,5.33802831 9.04411768,5.54275423 8.99269997,5.73491386 C8.94128226,5.92707349 8.81544133,6.09083805 8.643,6.19 C8.52945328,6.25602069 8.40034419,6.29054184 8.269,6.29 C8.00076828,6.29058654 7.75275694,6.14750308 7.619,5.915 L7.119,5.049 C7.01939482,4.87690887 6.99230553,4.67227429 7.04370209,4.48019372 C7.09509865,4.28811316 7.22076258,4.124352 7.393,4.025 Z M7.5,17 C7.5,16.7238576 7.72385763,16.5 8,16.5 L16,16.5 C16.2761424,16.5 16.5,16.7238576 16.5,17 L16.5,19 C16.5,19.2761424 16.2761424,19.5 16,19.5 L8,19.5 C7.72385763,19.5 7.5,19.2761424 7.5,19 L7.5,17 Z M17.809,8.7 C17.6021593,8.34153211 17.7247802,7.88327006 18.083,7.676 L18.949,7.176 C19.1812226,7.0420254 19.4672798,7.04211707 19.6994165,7.17624047 C19.9315532,7.31036388 20.0745024,7.55814248 20.0744165,7.82624047 C20.0743306,8.09433847 19.9312226,8.3420254 19.699,8.476 L18.832,8.976 C18.4732323,9.18182545 18.0155569,9.05834703 17.809,8.7 Z M18.69,12.065 C18.69,11.6507864 19.0257864,11.315 19.44,11.315 L20.44,11.315 C20.8542136,11.315 21.19,11.6507864 21.19,12.065 C21.19,12.4792136 20.8542136,12.815 20.44,12.815 L19.44,12.815 C19.0261766,12.8150004 18.6905518,12.479823 18.69,12.066 L18.69,12.065 Z" id="Shape"></path>
            </g>
        </g>
    </g>
</svg>