<?xml version="1.0" encoding="UTF-8"?>
<svg width="24px" height="24px" viewBox="0 0 24 24" version="1.1" xmlns="http://www.w3.org/2000/svg" xmlns:xlink="http://www.w3.org/1999/xlink">
    <!-- Generator: Sketch 51.3 (57544) - http://www.bohemiancoding.com/sketch -->
    <title>email</title>
    <desc>Created with Sketch.</desc>
    <defs></defs>
    <g id="Symbols" stroke="none" stroke-width="1" fill="none" fill-rule="evenodd">
        <g id="icon/utility/email" fill="#000000" fill-rule="nonzero">
            <g id="email-action-unread" transform="translate(0.000000, 4.000000)">
                <path d="M23.888,1.832 C23.8196217,1.80296424 23.7404595,1.81840086 23.688,1.871 L13.941,11.616 C12.8671827,12.6892171 11.1268173,12.6892171 10.053,11.616 L0.31,1.871 C0.257816909,1.81788452 0.178316146,1.80238187 0.11,1.832 C0.0429620625,1.86087526 -0.00033950496,1.92700856 6.32818315e-18,2 L6.32818315e-18,14 C1.2139295e-16,15.1045695 0.8954305,16 2,16 L22,16 C23.1045695,16 24,15.1045695 24,14 L24,2 C24.0002713,1.92644459 23.9560016,1.86004015 23.888,1.832 Z" id="Shape"></path>
                <path d="M11.115,10.556 C11.6036381,11.0432087 12.3943619,11.0432087 12.883,10.556 L22.569,0.87 C22.7027335,0.736260774 22.7495592,0.538509109 22.69,0.359 C22.58,0.03 22.274,0 22,0 L2,0 C1.725,0 1.417,0.03 1.309,0.359 C1.24944081,0.538509109 1.29626655,0.736260774 1.43,0.87 L11.115,10.556 Z" id="Shape"></path>
            </g>
        </g>
    </g>
</svg>