<?xml version="1.0" encoding="UTF-8"?>
<svg width="24px" height="24px" viewBox="0 0 24 24" version="1.1" xmlns="http://www.w3.org/2000/svg" xmlns:xlink="http://www.w3.org/1999/xlink">
    <!-- Generator: Sketch 51.3 (57544) - http://www.bohemiancoding.com/sketch -->
    <title>export</title>
    <desc>Created with Sketch.</desc>
    <defs></defs>
    <g id="Symbols" stroke="none" stroke-width="1" fill="none" fill-rule="evenodd">
        <g id="icon/utility/export" fill="#000000" fill-rule="nonzero">
            <g id="navigation-next-alternate" transform="translate(0.000000, 3.000000)">
                <path d="M23.7,7.209 C24.0903819,6.81850015 24.0903819,6.18549985 23.7,5.795 L20.2,2.3 C19.9142997,2.01988028 19.4891288,1.93702446 19.1191515,2.08936803 C18.7491743,2.2417116 18.5056201,2.59992483 18.5,3 L18.5,4.75 C18.5002671,4.81638566 18.4740137,4.88012947 18.4270716,4.9270716 C18.3801295,4.97401373 18.3163857,5.00026715 18.25,5 L12.5,5 C10.2920031,5.00275483 8.50275483,6.7920031 8.5,9 L8.5,11 C8.5,11.8284271 9.17157288,12.5 10,12.5 C10.8284271,12.5 11.5,11.8284271 11.5,11 L11.5,9 C11.5,8.44771525 11.9477153,8 12.5,8 L18.25,8 C18.3163857,7.99973285 18.3801295,8.02598627 18.4270716,8.0729284 C18.4740137,8.11987053 18.5002671,8.18361434 18.5,8.25 L18.5,10 C18.499681,10.4048357 18.74348,10.7699237 19.1175364,10.9247586 C19.4915928,11.0795934 19.9221,10.9936239 20.208,10.707 L23.7,7.209 Z" id="Shape"></path>
                <path d="M16,9.5 C15.4477153,9.5 15,9.94771525 15,10.5 L15,15 C15,15.2761424 14.7761424,15.5 14.5,15.5 L2.5,15.5 C2.22385763,15.5 2,15.2761424 2,15 L2,3 C2,2.72385763 2.22385763,2.5 2.5,2.5 L15,2.5 C15,3.05228475 15.4477153,3.5 16,3.5 C16.5522847,3.5 17,3.05228475 17,2.5 C17,1.3954305 16.1045695,0.5 15,0.5 L2,0.5 C0.8954305,0.5 1.3527075e-16,1.3954305 0,2.5 L0,15.5 C1.3527075e-16,16.6045695 0.8954305,17.5 2,17.5 L15,17.5 C16.1045695,17.5 17,16.6045695 17,15.5 L17,10.5 C17,9.94771525 16.5522847,9.5 16,9.5 Z" id="Shape"></path>
            </g>
        </g>
    </g>
</svg>