<?xml version="1.0" encoding="UTF-8"?>
<svg width="24px" height="24px" viewBox="0 0 24 24" version="1.1" xmlns="http://www.w3.org/2000/svg" xmlns:xlink="http://www.w3.org/1999/xlink">
    <!-- Generator: Sketch 51.3 (57544) - http://www.bohemiancoding.com/sketch -->
    <title>file-xml</title>
    <desc>Created with Sketch.</desc>
    <defs></defs>
    <g id="Symbols" stroke="none" stroke-width="1" fill="none" fill-rule="evenodd">
        <g id="icon/file/xml" fill="#000000" fill-rule="nonzero">
            <g id="file-xml" transform="translate(2.000000, 0.000000)">
                <path d="M15.5,6 L19.4,6 C19.5012544,6.00018116 19.5926192,5.93926856 19.6313922,5.84573164 C19.6701651,5.75219472 19.6486884,5.6445071 19.577,5.573 L14.427,0.425 C14.3557504,0.353566137 14.2485457,0.331961198 14.1551894,0.370222017 C14.061833,0.408482836 14.0006248,0.499109381 14,0.6 L14,4.5 C14,5.32842712 14.6715729,6 15.5,6 Z" id="Shape"></path>
                <path d="M19.75,7 C19.8872939,6.99999561 19.9989016,7.1107105 20,7.248 L20,22 C20,23.1045695 19.1045695,24 18,24 L2,24 C0.8954305,24 0,23.1045695 0,22 L0,2 C0,0.8954305 0.8954305,-6.76353751e-17 2,0 L12.75,0 C12.8872939,-4.39347438e-06 12.9989016,0.110710498 13,0.248 L13,4.5 C13,5.88071187 14.1192881,7 15.5,7 L19.75,7 Z M6.346,17 L7.536,17 L5.842,14.599 L7.431,12.331 L6.234,12.331 L5.177,13.927 L4.106,12.331 L2.923,12.331 L4.512,14.606 L2.818,17 L4.001,17 L5.177,15.292 L6.346,17 Z M12.037,17 L13.038,17 L13.038,12.331 L11.638,12.331 L10.504,15.243 L9.37,12.331 L7.977,12.331 L7.977,17 L8.971,17 L8.971,13.64 L10.287,17 L10.721,17 L12.037,13.64 L12.037,17 Z M13.962,17 L16.93,17 L16.93,16.125 L14.956,16.125 L14.956,12.331 L13.962,12.331 L13.962,17 Z" id="Combined-Shape"></path>
            </g>
        </g>
    </g>
</svg>