<?xml version="1.0" encoding="UTF-8"?>
<svg width="24px" height="24px" viewBox="0 0 24 24" version="1.1" xmlns="http://www.w3.org/2000/svg" xmlns:xlink="http://www.w3.org/1999/xlink">
    <!-- Generator: Sketch 51.3 (57544) - http://www.bohemiancoding.com/sketch -->
    <title>file-ppt</title>
    <desc>Created with Sketch.</desc>
    <defs></defs>
    <g id="Symbols" stroke="none" stroke-width="1" fill="none" fill-rule="evenodd">
        <g id="icon/file/ppt" fill="#000000" fill-rule="nonzero">
            <g id="file-ppt" transform="translate(2.000000, 0.000000)">
                <path d="M15.5,6 L19.4,6 C19.5012544,6.00018116 19.5926192,5.93926856 19.6313922,5.84573164 C19.6701651,5.75219472 19.6486884,5.6445071 19.577,5.573 L14.427,0.425 C14.3557504,0.353566137 14.2485457,0.331961198 14.1551894,0.370222017 C14.061833,0.408482836 14.0006248,0.499109381 14,0.6 L14,4.5 C14,5.32842712 14.6715729,6 15.5,6 Z" id="Shape"></path>
                <path d="M19.75,7 C19.8872939,6.99999561 19.9989016,7.1107105 20,7.248 L20,22 C20,23.1045695 19.1045695,24 18,24 L2,24 C0.8954305,24 0,23.1045695 0,22 L0,2 C0,0.8954305 0.8954305,-6.76353751e-17 2,0 L12.75,0 C12.8872939,-4.39347438e-06 12.9989016,0.110710498 13,0.248 L13,4.5 C13,5.88071187 14.1192881,7 15.5,7 L19.75,7 Z M4.057,17 L5.051,17 L5.051,15.327 L6.241,15.327 C7.249,15.327 7.809,14.648 7.809,13.836 C7.809,13.017 7.256,12.331 6.241,12.331 L4.057,12.331 L4.057,17 Z M6.794,13.829 C6.794,14.221 6.5,14.473 6.108,14.473 L5.051,14.473 L5.051,13.185 L6.108,13.185 C6.5,13.185 6.794,13.444 6.794,13.829 Z M8.425,17 L9.419,17 L9.419,15.327 L10.609,15.327 C11.617,15.327 12.177,14.648 12.177,13.836 C12.177,13.017 11.624,12.331 10.609,12.331 L8.425,12.331 L8.425,17 Z M11.162,13.829 C11.162,14.221 10.868,14.473 10.476,14.473 L9.419,14.473 L9.419,13.185 L10.476,13.185 C10.868,13.185 11.162,13.444 11.162,13.829 Z M13.871,17 L14.872,17 L14.872,13.206 L16.23,13.206 L16.23,12.331 L12.506,12.331 L12.506,13.206 L13.871,13.206 L13.871,17 Z" id="Combined-Shape"></path>
            </g>
        </g>
    </g>
</svg>