<?xml version="1.0" encoding="UTF-8"?>
<svg width="24px" height="24px" viewBox="0 0 24 24" version="1.1" xmlns="http://www.w3.org/2000/svg" xmlns:xlink="http://www.w3.org/1999/xlink">
    <!-- Generator: Sketch 51.3 (57544) - http://www.bohemiancoding.com/sketch -->
    <title>file-doc</title>
    <desc>Created with Sketch.</desc>
    <defs></defs>
    <g id="Symbols" stroke="none" stroke-width="1" fill="none" fill-rule="evenodd">
        <g id="icon/file/doc" fill="#000000" fill-rule="nonzero">
            <g id="file-doc" transform="translate(2.000000, 0.000000)">
                <path d="M15.5,6 L19.4,6 C19.5012544,6.00018116 19.5926192,5.93926856 19.6313922,5.84573164 C19.6701651,5.75219472 19.6486884,5.6445071 19.577,5.573 L14.427,0.425 C14.3557504,0.353566137 14.2485457,0.331961198 14.1551894,0.370222017 C14.061833,0.408482836 14.0006248,0.499109381 14,0.6 L14,4.5 C14,5.32842712 14.6715729,6 15.5,6 Z" id="Shape"></path>
                <path d="M19.75,7 C19.8872939,6.99999561 19.9989016,7.1107105 20,7.248 L20,22 C20,23.1045695 19.1045695,24 18,24 L2,24 C0.8954305,24 0,23.1045695 0,22 L0,2 C0,0.8954305 0.8954305,-6.76353751e-17 2,0 L12.75,0 C12.8872939,-4.39347438e-06 12.9989016,0.110710498 13,0.248 L13,4.5 C13,5.88071187 14.1192881,7 15.5,7 L19.75,7 Z M2.867,17 L4.708,17 C6.171,17 7.186,16.076 7.186,14.669 C7.186,13.262 6.171,12.331 4.708,12.331 L2.867,12.331 L2.867,17 Z M3.861,16.125 L3.861,13.206 L4.708,13.206 C5.667,13.206 6.171,13.843 6.171,14.669 C6.171,15.46 5.632,16.125 4.708,16.125 L3.861,16.125 Z M7.669,14.669 C7.669,16.076 8.698,17.084 10.105,17.084 C11.519,17.084 12.548,16.076 12.548,14.669 C12.548,13.262 11.519,12.254 10.105,12.254 C8.698,12.254 7.669,13.262 7.669,14.669 Z M11.526,14.669 C11.526,15.537 10.966,16.202 10.105,16.202 C9.244,16.202 8.691,15.537 8.691,14.669 C8.691,13.794 9.244,13.136 10.105,13.136 C10.966,13.136 11.526,13.794 11.526,14.669 Z M15.474,17.084 C16.538,17.084 17.126,16.517 17.462,15.936 L16.608,15.523 C16.412,15.908 15.992,16.202 15.474,16.202 C14.662,16.202 14.046,15.551 14.046,14.669 C14.046,13.787 14.662,13.136 15.474,13.136 C15.992,13.136 16.412,13.437 16.608,13.815 L17.462,13.395 C17.133,12.814 16.538,12.254 15.474,12.254 C14.109,12.254 13.024,13.234 13.024,14.669 C13.024,16.104 14.109,17.084 15.474,17.084 Z" id="Combined-Shape"></path>
            </g>
        </g>
    </g>
</svg>