<?xml version="1.0" encoding="UTF-8"?>
<svg width="24px" height="24px" viewBox="0 0 24 24" version="1.1" xmlns="http://www.w3.org/2000/svg" xmlns:xlink="http://www.w3.org/1999/xlink">
    <!-- Generator: Sketch 51.3 (57544) - http://www.bohemiancoding.com/sketch -->
    <title>file-copy</title>
    <desc>Created with Sketch.</desc>
    <defs></defs>
    <g id="Symbols" stroke="none" stroke-width="1" fill="none" fill-rule="evenodd">
        <g id="icon/file/copy" fill="#000000" fill-rule="nonzero">
            <g id="common-file-double-1-alternate" transform="translate(3.000000, 1.000000)">
                <path d="M17.482,3.56901819 L14.619,0.538018195 C14.2753045,0.191672309 13.8069316,-0.002162006 13.319,1.81946951e-05 L5.333,1.81946951e-05 C4.32111898,0.00112046258 3.50110227,0.821137174 3.5,1.83301819 L3.5,3.50001819 L1.833,3.50001819 C0.82111898,3.50112046 0.00110226789,4.32113717 0,5.33301819 L0,19.6670182 C0.00110226789,20.6788992 0.82111898,21.4989159 1.833,21.5000182 L12.667,21.5000182 C13.678881,21.4989159 14.4988977,20.6788992 14.5,19.6670182 L14.5,18.0000182 L16.167,18.0000182 C17.178881,17.9989159 17.9988977,17.1788992 18,16.1670182 L18,4.85001819 C18.004629,4.37110934 17.8182104,3.91010129 17.482,3.56901819 Z M12.7499994,2.00001819 L12.7499994,3.74999985 C12.7499994,4.57842692 13.4215723,5.24999975 14.2499993,5.24999975 L16,5.24999975 L16,15.5000182 C16,15.7761606 15.7761424,16.0000182 15.5,16.0000182 L6,16.0000182 C5.72385763,16.0000182 5.5,15.7761606 5.5,15.5000182 L5.5,2.50001819 C5.5,2.22387582 5.72385763,2.00001819 6,2.00001819 L12.7499994,2.00001819 Z M12,19.5000182 L2.5,19.5000182 C2.22385763,19.5000182 2,19.2761606 2,19.0000182 L2,6.00001819 C2,5.72387582 2.22385763,5.50001819 2.5,5.50001819 L3.25,5.50001819 C3.38807119,5.50001819 3.5,5.61194701 3.5,5.75001819 L3.5,16.1670182 C3.5,17.1793561 4.32066205,18.0000182 5.333,18.0000182 L12.25,18.0000182 C12.3880712,18.0000182 12.5,18.111947 12.5,18.2500182 L12.5,19.0000182 C12.5,19.2761606 12.2761424,19.5000182 12,19.5000182 Z" id="Shape"></path>
            </g>
        </g>
    </g>
</svg>