<?xml version="1.0" encoding="UTF-8"?>
<svg width="24px" height="24px" viewBox="0 0 24 24" version="1.1" xmlns="http://www.w3.org/2000/svg" xmlns:xlink="http://www.w3.org/1999/xlink">
    <!-- Generator: Sketch 52.1 (67048) - http://www.bohemiancoding.com/sketch -->
    <title>icon/utility/globe</title>
    <desc>Created with Sketch.</desc>
    <g id="icon/utility/globe" stroke="none" stroke-width="1" fill="none" fill-rule="evenodd">
        <path d="M17.9912425,11.25 L22.473627,11.25 C22.3585164,9.61895952 21.870881,8.09077084 21.0952869,6.75 L17.5482052,6.75 C17.8019269,8.15620255 17.9543832,9.67498147 17.9912425,11.25 Z M16.4907729,11.25 C16.4515759,9.66004039 16.2885724,8.13692773 16.022388,6.75 L7.97761197,6.75 C7.71142757,8.13692773 7.54842408,9.66004039 7.50922707,11.25 L16.4907729,11.25 Z M16.2841383,2.41089566 C16.6540734,3.25580227 16.9712546,4.21140172 17.228637,5.25 L20.0431708,5.25 C19.0273813,4.04087236 17.7439653,3.06409902 16.2841383,2.41089566 Z M14.2479205,1.74118088 C13.5237092,1.58322255 12.7715734,1.5 12,1.5 C11.2284266,1.5 10.4762908,1.58322255 9.75207948,1.74118088 C9.17856089,2.65664336 8.69213296,3.85643092 8.31972917,5.25 L15.6802708,5.25 C15.307867,3.85643092 14.8214391,2.65664336 14.2479205,1.74118088 Z M17.9912425,12.75 C17.9543832,14.3250185 17.8019269,15.8437974 17.5482052,17.25 L21.0952869,17.25 C21.870881,15.9092292 22.3585164,14.3810405 22.473627,12.75 L17.9912425,12.75 Z M16.4907729,12.75 L7.50922707,12.75 C7.54842408,14.3399596 7.71142757,15.8630723 7.97761197,17.25 L16.022388,17.25 C16.2885724,15.8630723 16.4515759,14.3399596 16.4907729,12.75 Z M16.2841383,21.5891043 C17.7439653,20.935901 19.0273813,19.9591276 20.0431708,18.75 L17.228637,18.75 C16.9712546,19.7885983 16.6540734,20.7441977 16.2841383,21.5891043 Z M14.2479205,22.2588191 C14.8214391,21.3433566 15.307867,20.1435691 15.6802708,18.75 L8.31972917,18.75 C8.69213296,20.1435691 9.17856089,21.3433566 9.75207948,22.2588191 C10.4762908,22.4167774 11.2284266,22.5 12,22.5 C12.7715734,22.5 13.5237092,22.4167774 14.2479205,22.2588191 Z M2.90471305,6.75 C2.129119,8.09077084 1.64148365,9.61895952 1.52637304,11.25 L6.00875751,11.25 C6.04561684,9.67498147 6.19807311,8.15620255 6.45179484,6.75 L2.90471305,6.75 Z M3.95682922,5.25 L6.77136302,5.25 C7.02874538,4.21140172 7.34592662,3.25580227 7.71586166,2.41089566 C6.25603471,3.06409902 4.97261867,4.04087236 3.95682922,5.25 Z M2.90471305,17.25 L6.45179484,17.25 C6.19807311,15.8437974 6.04561684,14.3250185 6.00875751,12.75 L1.52637304,12.75 C1.64148365,14.3810405 2.129119,15.9092292 2.90471305,17.25 Z M3.95682922,18.75 C4.97261867,19.9591276 6.25603471,20.935901 7.71586166,21.5891043 C7.34592662,20.7441977 7.02874538,19.7885983 6.77136302,18.75 L3.95682922,18.75 Z M12,24 C5.372583,24 0,18.627417 0,12 C0,5.372583 5.372583,0 12,0 C18.627417,0 24,5.372583 24,12 C24,18.627417 18.627417,24 12,24 Z" id="Combined-Shape" fill="#000000" fill-rule="nonzero"></path>
    </g>
</svg>