<?xml version="1.0" encoding="UTF-8"?>
<svg width="24px" height="24px" viewBox="0 0 24 24" version="1.1" xmlns="http://www.w3.org/2000/svg" xmlns:xlink="http://www.w3.org/1999/xlink">
    <!-- Generator: Sketch 51.3 (57544) - http://www.bohemiancoding.com/sketch -->
    <title>status-help</title>
    <desc>Created with Sketch.</desc>
    <defs></defs>
    <g id="Symbols" stroke="none" stroke-width="1" fill="none" fill-rule="evenodd">
        <g id="icon/status/help" fill="#000000" fill-rule="nonzero">
            <g id="help-wheel">
                <path d="M12,0 C5.372583,-4.05812251e-16 8.11624501e-16,5.372583 0,12 C-8.11624501e-16,18.627417 5.372583,24 12,24 C18.627417,24 24,18.627417 24,12 C23.9928352,5.37555305 18.624447,0.00716484761 12,0 Z M21.428,8.666 C21.4552839,8.74248058 21.443723,8.82744803 21.3969969,8.89385862 C21.3502709,8.96026922 21.2742014,8.99984885 21.193,9 L17.337,9 C17.2497464,8.99957834 17.168868,8.95422594 17.123,8.88 C16.623723,8.06467262 15.9383274,7.37927699 15.123,6.88 C15.0470191,6.83449218 15.0003667,6.75256594 15,6.664 L15,2.808 C15.0002844,2.72679682 15.0398358,2.65074828 15.1061546,2.6038883 C15.1724734,2.55702833 15.2573647,2.54514729 15.334,2.572 C18.1775583,3.58543125 20.4150353,5.82327549 21.428,8.667 L21.428,8.666 Z M12,16 C9.790861,16 8,14.209139 8,12 C8,9.790861 9.790861,8 12,8 C14.209139,8 16,9.790861 16,12 C16,13.060866 15.5785726,14.0782816 14.8284271,14.8284271 C14.0782816,15.5785726 13.060866,16 12,16 Z M8.666,2.572 C8.74263531,2.54514729 8.82752661,2.55702833 8.89384539,2.6038883 C8.96016417,2.65074828 8.99971557,2.72679682 9,2.808 L9,6.664 C8.99996423,6.75135492 8.95451368,6.83240839 8.88,6.878 C8.06467262,7.37727699 7.37927699,8.06267262 6.88,8.878 C6.8340615,8.9539021 6.75172112,9.00019485 6.663,9 L2.807,9 C2.72589327,9.00208117 2.64878266,8.96482966 2.6,8.9 C2.55273632,8.833748 2.54114097,8.74846605 2.569,8.672 C3.58134754,5.82572759 5.82022593,3.58574757 8.666,2.572 Z M2.572,15.334 C2.54421948,15.2575098 2.5555696,15.172271 2.60239764,15.1057154 C2.64922567,15.0391598 2.72562178,14.9996869 2.807,15 L6.663,15 C6.75035492,15.0000358 6.83140839,15.0454863 6.877,15.12 C7.37627699,15.9353274 8.06167262,16.620723 8.877,17.12 C8.95136917,17.1657306 8.99677028,17.2466959 8.997,17.334 L8.997,21.19 C8.99684885,21.2712014 8.95726922,21.3472709 8.89085862,21.3939969 C8.82444803,21.440723 8.73948058,21.4522839 8.663,21.425 C5.82144217,20.4116716 3.58532841,18.1755578 2.572,15.334 Z M15.334,21.429 C15.2575194,21.4562839 15.172552,21.444723 15.1061414,21.3979969 C15.0397308,21.3512709 15.0001511,21.2752014 15,21.194 L15,17.338 C15.0000358,17.2506451 15.0454863,17.1695916 15.12,17.124 C15.9353274,16.624723 16.620723,15.9393274 17.12,15.124 C17.1655916,15.0494863 17.2466451,15.0040358 17.334,15.004 L21.19,15.004 C21.269802,15.0052386 21.344174,15.0446557 21.39,15.11 C21.4372551,15.1758769 21.4488614,15.2608649 21.421,15.337 C20.4087823,18.1780811 18.1742491,20.4144499 15.334,21.429 Z" id="Shape"></path>
            </g>
        </g>
    </g>
</svg>