<?xml version="1.0" encoding="UTF-8"?>
<svg width="24px" height="24px" viewBox="0 0 24 24" version="1.1" xmlns="http://www.w3.org/2000/svg" xmlns:xlink="http://www.w3.org/1999/xlink">
    <!-- Generator: Sketch 51.3 (57544) - http://www.bohemiancoding.com/sketch -->
    <title>key</title>
    <desc>Created with Sketch.</desc>
    <defs></defs>
    <g id="Symbols" stroke="none" stroke-width="1" fill="none" fill-rule="evenodd">
        <g id="icon/utility/key" fill="#000000" fill-rule="nonzero">
            <g id="login-key-1">
                <path d="M23.113,5.954 L21.849,4.69 L22.73,3.81 C23.4783458,3.06248259 23.4790174,1.84984584 22.7315,1.1015 C21.9839826,0.353154164 20.7713458,0.352482591 20.023,1.1 L9.04,12.085 C6.40115314,10.7727083 3.20012659,11.5660219 1.47949308,13.958728 C-0.24114043,16.3514342 0.0256247896,19.6384927 2.10956605,21.722434 C4.1935073,23.8063752 7.48056584,24.0731404 9.87327197,22.3525069 C12.2659781,20.6318734 13.0592917,17.4308469 11.747,14.792 L15.486,11.055 L16.248,11.817 C16.6901162,12.2591162 17.3345145,12.4317822 17.9384565,12.2699565 C18.5423984,12.1081307 19.0141307,11.6363984 19.1759565,11.0324565 C19.3377822,10.4285145 19.1651162,9.78411616 18.723,9.342 L17.96,8.58 L19.376,7.163 L20.64,8.426 C21.3314329,9.08797961 22.4215671,9.08797961 23.113,8.426 C23.7939543,7.74268532 23.7939543,6.63731468 23.113,5.954 Z M6.376,14.454 C8.03285425,14.454 9.376,15.7971458 9.376,17.454 C9.376,19.1108542 8.03285425,20.454 6.376,20.454 C4.71914575,20.454 3.376,19.1108542 3.376,17.454 C3.37710405,15.7979269 4.71992648,14.4559996 6.376,14.456 L6.376,14.454 Z" id="Shape"></path>
            </g>
        </g>
    </g>
</svg>