<?xml version="1.0" encoding="UTF-8"?>
<svg width="24px" height="24px" viewBox="0 0 24 24" version="1.1" xmlns="http://www.w3.org/2000/svg" xmlns:xlink="http://www.w3.org/1999/xlink">
    <!-- Generator: Sketch 52.1 (67048) - http://www.bohemiancoding.com/sketch -->
    <title>icon/utility/star-outline</title>
    <desc>Created with Sketch.</desc>
    <g id="icon/utility/star-outline" stroke="none" stroke-width="1" fill="none" fill-rule="evenodd">
        <g id="rating-star" fill="#000000" fill-rule="nonzero">
            <path d="M23.555,8.729 C23.7730265,9.31869759 23.6001673,9.98179061 23.122,10.39 L17.928,14.696 C17.7692873,14.8277089 17.7077308,15.0433552 17.773,15.239 L19.951,21.774 C20.1580118,22.3941337 19.9395318,23.0769186 19.4109697,23.4616806 C18.8824077,23.8464427 18.165522,23.8445491 17.639,23.457 L12.295,19.538 C12.1190806,19.4091144 11.8799194,19.4091144 11.704,19.538 L6.358,23.458 C5.83127614,23.8442168 5.11518426,23.8452058 4.58739553,23.4604456 C4.05960681,23.0756853 3.84145715,22.3936301 4.048,21.774 L6.226,15.243 C6.29126923,15.0473552 6.22971272,14.8317089 6.071,14.7 L0.887,10.4 C0.402539142,9.99514402 0.223447388,9.33027101 0.439011284,8.73685472 C0.65457518,8.14343843 1.21864395,7.74852528 1.85,7.749 L7.939,7.749 C8.15091611,7.74872882 8.33964397,7.61489632 8.41,7.415 L10.59,1.238 L10.595,1.222 C10.8141673,0.635838575 11.3742049,0.247333228 12,0.247333228 C12.6257951,0.247333228 13.1858327,0.635838575 13.405,1.222 L15.59,7.415 C15.660478,7.61524246 15.8497168,7.74915295 16.062,7.749 L22.149,7.749 C22.7760617,7.75085969 23.3362593,8.1413246 23.555,8.729 Z M22.149,8.749 L16.0627205,8.74899974 C15.4258708,8.74945861 14.8581545,8.34772713 14.6469731,7.74771657 L12.4683333,1.57222215 C12.3952776,1.37683501 12.2085984,1.24733323 12,1.24733323 C11.7914016,1.24733323 11.6047224,1.37683501 11.54948,1.52027499 L11.532996,1.57080415 L9.35327967,7.74699918 C9.14221158,8.34668814 8.57602799,8.74818563 7.939,8.749 L1.8492481,8.74899972 C1.63879608,8.74884148 1.45077316,8.88047919 1.37891852,9.07828462 C1.30706389,9.27609005 1.36676114,9.49771439 1.52543028,9.63032034 L6.70960428,13.9304647 C7.18574244,14.3255913 7.37041197,14.9725304 7.17463971,15.5593585 L4.99668353,22.0902271 C4.92783591,22.2967704 5.00055247,22.5241222 5.17648204,22.6523756 C5.35241162,22.780629 5.59110891,22.7802993 5.76667558,22.6515662 L11.113,18.7313284 C11.6407582,18.3446716 12.3582418,18.3446716 12.8863702,18.7315998 L18.231788,22.6516415 C18.4072954,22.7808245 18.6462573,22.7814557 18.8224446,22.6532017 C18.998632,22.5249477 19.0714586,22.2973527 19.0023022,22.0901842 L16.8243957,15.5554647 C16.628588,14.9685304 16.8132576,14.3215913 17.2897712,13.9261532 L22.4727212,9.6294495 C22.631833,9.4936164 22.6895293,9.2731174 22.6174326,9.07680882 C22.5437656,8.8801858 22.3560843,8.74961854 22.149,8.749 Z" id="Shape"></path>
        </g>
    </g>
</svg>