<?xml version="1.0" encoding="UTF-8"?>
<svg width="24px" height="24px" viewBox="0 0 24 24" version="1.1" xmlns="http://www.w3.org/2000/svg" xmlns:xlink="http://www.w3.org/1999/xlink">
    <!-- Generator: Sketch 51.3 (57544) - http://www.bohemiancoding.com/sketch -->
    <title>status-shield</title>
    <desc>Created with Sketch.</desc>
    <defs></defs>
    <g id="Symbols" stroke="none" stroke-width="1" fill="none" fill-rule="evenodd">
        <g id="icon/status/shield" fill="#000000" fill-rule="nonzero">
            <g id="check-shield" transform="translate(2.000000, 0.000000)">
                <path d="M18.418,0 L1.582,0 C0.757089753,0.00494955044 0.0909851512,0.675074904 0.091,1.5 L0.091,7.763 C0.0671411196,14.5323552 3.79099228,20.7591732 9.766,23.941 C9.83792303,23.9797091 9.91832189,23.9999806 10,24 C10.0819014,24.0002053 10.1625992,23.9802884 10.235,23.942 C16.2091395,20.7588963 19.9323082,14.5321911 19.909,7.763 L19.909,1.5 C19.9090148,0.675074904 19.2429102,0.00494955044 18.418,0 Z M15.9,7.945 L8.8,14.645 C8.4046533,15.019556 7.78227626,15.0088866 7.4,14.621 L5.027,12.225 C4.76859412,11.9725755 4.66641305,11.6004095 4.75969763,11.2514257 C4.85298221,10.9024418 5.12722958,10.6308964 5.47711987,10.5410716 C5.82701017,10.4512468 6.19814631,10.5571076 6.448,10.818 L8.13,12.518 L14.525,6.491 C14.7847321,6.24537989 15.1557712,6.15698298 15.4983505,6.25910751 C15.8409298,6.36123205 16.1030033,6.63836289 16.1858505,6.98610752 C16.2686977,7.33385216 16.1597321,7.69937991 15.9,7.945 Z" id="Shape"></path>
            </g>
        </g>
    </g>
</svg>