<?xml version="1.0" encoding="UTF-8"?>
<svg width="24px" height="24px" viewBox="0 0 24 24" version="1.1" xmlns="http://www.w3.org/2000/svg" xmlns:xlink="http://www.w3.org/1999/xlink">
    <!-- Generator: Sketch 51.3 (57544) - http://www.bohemiancoding.com/sketch -->
    <title>status-pending</title>
    <desc>Created with Sketch.</desc>
    <defs></defs>
    <g id="Symbols" stroke="none" stroke-width="1" fill="none" fill-rule="evenodd">
        <g id="icon/status/pending" fill="#000000" fill-rule="nonzero">
            <g id="time-clock-circle">
                <path d="M12,0 C5.372583,-4.05812251e-16 8.11624501e-16,5.372583 0,12 C-8.11624501e-16,18.627417 5.372583,24 12,24 C18.627417,24 24,18.627417 24,12 C23.9928352,5.37555305 18.624447,0.00716484761 12,0 Z M17.2,17.221 C16.8230581,17.6199231 16.1974341,17.6473744 15.787,17.283 L10.828,12.737 C10.6200324,12.5482867 10.5009989,12.2808242 10.5,12 L10.5,6.5 C10.5,5.94771525 10.9477153,5.5 11.5,5.5 C12.0522847,5.5 12.5,5.94771525 12.5,6.5 L12.5,11.56 L17.134,15.808 C17.3304843,15.9866231 17.4478566,16.2360601 17.4602375,16.5013128 C17.4726185,16.7665656 17.3789914,17.0258511 17.2,17.222 L17.2,17.221 Z" id="Shape"></path>
            </g>
        </g>
    </g>
</svg>