<?xml version="1.0" encoding="UTF-8"?>
<svg width="24px" height="24px" viewBox="0 0 24 24" version="1.1" xmlns="http://www.w3.org/2000/svg" xmlns:xlink="http://www.w3.org/1999/xlink">
    <!-- Generator: Sketch 52.1 (67048) - http://www.bohemiancoding.com/sketch -->
    <title>icon/utility/sync</title>
    <desc>Created with Sketch.</desc>
    <g id="icon/utility/sync" stroke="none" stroke-width="1" fill="none" fill-rule="evenodd">
        <g id="synchronize-arrows-1" transform="translate(12.000000, 12.000000) scale(-1, 1) translate(-12.000000, -12.000000) translate(0.000000, 2.000000)" fill="#000000">
            <path d="M10.319,2.936 C12.9199387,2.31808025 15.6497155,3.18391933 17.419,5.188 C17.8765679,5.70493853 18.6665615,5.75306792 19.1835,5.2955 C19.7004385,4.83793208 19.7485679,4.04793853 19.291,3.531 C16.9119876,0.835410424 13.2411699,-0.329885818 9.743,0.5 C6.19748752,1.39017057 3.39249908,4.09804129 2.378,7.61 C2.34396375,7.7280748 2.22888001,7.80366486 2.107,7.788 L1.074,7.658 C0.887062991,7.63397509 0.702872003,7.71907599 0.6,7.877 C0.494425769,8.03454175 0.487067424,8.23825173 0.581,8.403 L3.057,12.745 C3.13528102,12.8818495 3.27352113,12.9737625 3.43,12.993 C3.45063974,12.9944919 3.47136026,12.9944919 3.492,12.993 C3.62730364,12.9929943 3.75682867,12.9381537 3.851,12.841 L7.328,9.248 C7.4600079,9.11146812 7.50327049,8.9119363 7.43966445,8.73299131 C7.37605841,8.55404632 7.21656565,8.42658393 7.028,8.404 L5.15,8.172 C5.07535017,8.16146299 5.00944162,8.11780158 4.97062534,8.05317247 C4.93180906,7.98854336 4.92423058,7.90984888 4.95,7.839 C5.80676547,5.40940729 7.82181087,3.56925687 10.319,2.936 Z" id="Path"></path>
            <path d="M23.406,12.1 C23.5103202,11.9416907 23.516129,11.7379971 23.421,11.574 L20.921,7.245 C20.8416191,7.10877684 20.7026365,7.01797483 20.546,7 C20.3895219,6.97944641 20.2327436,7.03567804 20.125,7.151 L16.669,10.765 C16.5381979,10.9016371 16.4956989,11.1003899 16.5591839,11.2785711 C16.6226689,11.4567522 16.7812684,11.5838548 16.969,11.607 L18.817,11.828 C18.8926916,11.836937 18.9601214,11.8800478 19,11.945 C19.0397582,12.0098779 19.048205,12.0892047 19.023,12.161 C18.1672535,14.590663 16.1515518,16.4302865 13.654,17.061 C11.0529083,17.6777611 8.3235646,16.811675 6.554,14.808 C6.26144103,14.4616045 5.80424441,14.3007916 5.35925406,14.3877639 C4.9142637,14.4747362 4.5512595,14.7958553 4.41065168,15.2269122 C4.27004387,15.657969 4.37388146,16.1313687 4.682,16.464 C7.06180168,19.1590106 10.7327272,20.3238346 14.231,19.494 C17.7813715,18.6047595 20.5892912,15.8917201 21.6,12.374 C21.6342978,12.256468 21.7483887,12.18083 21.87,12.195 L22.928,12.322 C22.9479747,12.3234236 22.9680253,12.3234236 22.988,12.322 C23.1557524,12.3228069 23.3127305,12.2394358 23.406,12.1 Z" id="Path"></path>
        </g>
    </g>
</svg>