<?xml version="1.0" encoding="UTF-8"?>
<svg width="24px" height="24px" viewBox="0 0 24 24" version="1.1" xmlns="http://www.w3.org/2000/svg" xmlns:xlink="http://www.w3.org/1999/xlink">
    <!-- Generator: Sketch 51.3 (57544) - http://www.bohemiancoding.com/sketch -->
    <title>thumbs-down</title>
    <desc>Created with Sketch.</desc>
    <defs></defs>
    <g id="Symbols" stroke="none" stroke-width="1" fill="none" fill-rule="evenodd">
        <g id="icon/thumbs/down" fill="#000000" fill-rule="nonzero">
            <g id="dislike-1">
                <path d="M0,11.966 C1.69088438e-16,13.3467119 1.11928813,14.466 2.5,14.466 L8.811,14.466 C8.89107275,14.4661667 8.96622048,14.5046787 9.01311687,14.5695817 C9.06001326,14.6344847 9.07298293,14.7179242 9.048,14.794 C8.49596889,16.193186 8.31678663,17.7117556 8.528,19.201 C9.116,21.301 10.362,21.901 11.336,21.766 C12.3270041,21.5979011 13.0392848,20.7203919 13,19.716 C13,16.97 15.129,13.97 17.034,12.655 C17.1693918,12.5615616 17.2501598,12.4075042 17.25,12.243 L17.25,2.127 C17.2500517,1.88744652 17.0801898,1.68151516 16.845,1.636 C16.488,1.568 16.164,1.501 15.858,1.436 C14.5123195,1.11590955 13.1332071,0.957788337 11.75,0.965 L5.25,0.965 C3.292,0.966 3,2.062 3,2.716 C2.9988233,3.06269039 3.07788548,3.40495089 3.231,3.716 C2.13310296,4.27405245 1.68751384,5.61081981 2.231,6.716 C1.68975977,6.99099325 1.28261287,7.4730335 1.1020254,8.05264583 C0.921437935,8.63225815 0.982736596,9.26025009 1.272,9.794 C0.487872181,10.2361817 0.00202389526,11.0657906 0,11.966 Z" id="Shape"></path>
                <path d="M18.75,12.216 C18.75,12.7682847 19.1977153,13.216 19.75,13.216 L23,13.216 C23.5522847,13.216 24,12.7682847 24,12.216 L24,1.216 C24,0.66371525 23.5522847,0.216 23,0.216 L19.75,0.216 C19.1977153,0.216 18.75,0.66371525 18.75,1.216 L18.75,12.216 Z M20.25,2.966 C20.25,2.55178644 20.5857864,2.216 21,2.216 C21.4142136,2.216 21.75,2.55178644 21.75,2.966 C21.75,3.38021356 21.4142136,3.716 21,3.716 C20.5857864,3.716 20.25,3.38021356 20.25,2.966 Z" id="Shape"></path>
            </g>
        </g>
    </g>
</svg>