<svg xmlns="http://www.w3.org/2000/svg" width="112" height="56" viewBox="0 0 112 56">
    <g fill="none" fill-rule="evenodd">
        <path fill="#9E54B0" d="M246 293.897L130 294v38c13.753 10.156 29.614 12.59 47.582 7.3s40.774-5.44 68.418-.449v-44.954z" opacity=".56" transform="matrix(-1 0 0 1 241 -333)"/>
        <path fill="#DF216D" d="M348 246H138.478L125 308.302c35.125 40.245 74.513 51.358 118.166 33.34 43.653-18.02 78.598-18.02 104.834 0V246z" opacity=".48" transform="matrix(-1 0 0 1 241 -333)"/>
        <path fill="#0768FD" d="M182 333l255.52-80 5.48 75c-106.667 62.667-169.333 78.667-188 48s-43-45-73-43z" opacity=".48" transform="matrix(-1 0 0 1 241 -333)"/>
        <path fill="#00C221" d="M1095 0L6 227.688c207.013 138.119 399.346 173.193 577 105.224 177.655-67.97 348.321-67.97 512 0V0z" opacity=".4" transform="matrix(-1 0 0 1 241 -333)"/>
    </g>
</svg>
