<?xml version="1.0" encoding="UTF-8"?>
<svg width="24px" height="24px" viewBox="0 0 24 24" version="1.1" xmlns="http://www.w3.org/2000/svg" xmlns:xlink="http://www.w3.org/1999/xlink">
    <!-- Generator: Sketch 51.3 (57544) - http://www.bohemiancoding.com/sketch -->
    <title>checkbox-indeterminate</title>
    <desc>Created with Sketch.</desc>
    <defs></defs>
    <g id="Symbols" stroke="none" stroke-width="1" fill="none" fill-rule="evenodd">
        <g id="icon/checkbox/indeterminate" fill="#000000" fill-rule="nonzero">
            <path d="M2,0 L22,0 C23.1045695,-2.02906125e-16 24,0.8954305 24,2 L24,22 C24,23.1045695 23.1045695,24 22,24 L2,24 C0.8954305,24 1.3527075e-16,23.1045695 0,22 L0,2 C-1.3527075e-16,0.8954305 0.8954305,2.02906125e-16 2,0 Z M19,12 C19,11.4477153 18.5522847,11 18,11 L6,11 C5.44771525,11 5,11.4477153 5,12 C5,12.5522847 5.44771525,13 6,13 L18,13 C18.5522847,13 19,12.5522847 19,12 Z" id="Combined-Shape"></path>
        </g>
    </g>
</svg>