<?xml version="1.0" encoding="UTF-8"?>
<svg width="24px" height="24px" viewBox="0 0 24 24" version="1.1" xmlns="http://www.w3.org/2000/svg" xmlns:xlink="http://www.w3.org/1999/xlink">
    <!-- Generator: Sketch 51.3 (57544) - http://www.bohemiancoding.com/sketch -->
    <title>checkbox-selected</title>
    <desc>Created with Sketch.</desc>
    <defs></defs>
    <g id="Symbols" stroke="none" stroke-width="1" fill="none" fill-rule="evenodd">
        <g id="icon/checkbox/selected" fill="#000000" fill-rule="nonzero">
            <path d="M2,0 L22,0 C23.1045695,-2.02906125e-16 24,0.8954305 24,2 L24,22 C24,23.1045695 23.1045695,24 22,24 L2,24 C0.8954305,24 1.3527075e-16,23.1045695 0,22 L0,2 C-1.3527075e-16,0.8954305 0.8954305,2.02906125e-16 2,0 Z M18.927,8.2 C19.158405,7.91358568 19.2136904,7.52317505 19.0709064,7.18377241 C18.9281223,6.84436978 18.610372,6.61089239 18.2438115,6.57603752 C17.8772511,6.54118265 17.521192,6.71059002 17.317,7.017 L11.09,15.468 L7.014,12.207 C6.58266561,11.861822 5.95317797,11.9316656 5.608,12.363 C5.26282203,12.7943344 5.33266561,13.423822 5.764,13.769 L10.652,17.677 C10.8656811,17.8440355 11.1375155,17.9182105 11.4064219,17.8828578 C11.6753283,17.8475051 11.9187536,17.7055896 12.082,17.489 L18.927,8.2 Z" id="Combined-Shape"></path>
        </g>
    </g>
</svg>