<?xml version="1.0" encoding="UTF-8"?>
<svg width="24px" height="24px" viewBox="0 0 24 24" version="1.1" xmlns="http://www.w3.org/2000/svg" xmlns:xlink="http://www.w3.org/1999/xlink">
    <!-- Generator: Sketch 51.3 (57544) - http://www.bohemiancoding.com/sketch -->
    <title>drag</title>
    <desc>Created with Sketch.</desc>
    <defs></defs>
    <g id="Symbols" stroke="none" stroke-width="1" fill="none" fill-rule="evenodd">
        <g id="icon/utility/drag" fill="#000000">
            <g id="Drag" transform="translate(4.000000, 0.000000)">
                <g id="right" transform="translate(10.000000, 0.000000)">
                    <path d="M6,21 C6,22.65675 4.65675,24 3,24 C1.34325,24 0,22.65675 0,21 C0,19.34325 1.34325,18 3,18 C4.65675,18 6,19.34325 6,21" id="oval"></path>
                    <path d="M6,12 C6,13.65675 4.65675,15 3,15 C1.34325,15 0,13.65675 0,12 C0,10.34325 1.34325,9 3,9 C4.65675,9 6,10.34325 6,12" id="oval"></path>
                    <path d="M6,3 C6,4.65675 4.65675,6 3,6 C1.34325,6 0,4.65675 0,3 C0,1.34325 1.34325,0 3,0 C4.65675,0 6,1.34325 6,3" id="oval"></path>
                </g>
                <g id="left">
                    <path d="M6,21 C6,22.65675 4.65675,24 3,24 C1.34325,24 0,22.65675 0,21 C0,19.34325 1.34325,18 3,18 C4.65675,18 6,19.34325 6,21" id="oval"></path>
                    <path d="M6,12 C6,13.65675 4.65675,15 3,15 C1.34325,15 0,13.65675 0,12 C0,10.34325 1.34325,9 3,9 C4.65675,9 6,10.34325 6,12" id="oval"></path>
                    <path d="M6,3 C6,4.65675 4.65675,6 3,6 C1.34325,6 0,4.65675 0,3 C0,1.34325 1.34325,0 3,0 C4.65675,0 6,1.34325 6,3" id="oval"></path>
                </g>
            </g>
        </g>
    </g>
</svg>