<?xml version="1.0" encoding="UTF-8"?>
<svg width="24px" height="24px" viewBox="0 0 24 24" version="1.1" xmlns="http://www.w3.org/2000/svg" xmlns:xlink="http://www.w3.org/1999/xlink">
    <!-- Generator: Sketch 51.3 (57544) - http://www.bohemiancoding.com/sketch -->
    <title>eye-show</title>
    <desc>Created with Sketch.</desc>
    <defs></defs>
    <g id="Symbols" stroke="none" stroke-width="1" fill="none" fill-rule="evenodd">
        <g id="icon/eye/show" fill="#000000" fill-rule="nonzero">
            <g id="view-1" transform="translate(0.000000, 4.000000)">
                <path d="M23.432,6.524 C20.787,3.614 16.4,0.538 12,0.6 C7.6,0.537 3.213,3.615 0.568,6.524 C-0.182690534,7.36329753 -0.182690534,8.63270247 0.568,9.472 C3.182,12.351 7.507,15.4 11.839,15.4 L12.147,15.4 C16.494,15.4 20.818,12.351 23.435,9.471 C24.1846963,8.63126683 24.1834044,7.36220507 23.432,6.524 Z M7.4,8 C7.4,5.45949015 9.45949015,3.4 12,3.4 C14.5405098,3.4 16.6,5.45949015 16.6,8 C16.6,10.5405098 14.5405098,12.6 12,12.6 C9.45949015,12.6 7.4,10.5405098 7.4,8 Z" id="Shape"></path>
                <circle id="Oval" cx="12" cy="8" r="2"></circle>
            </g>
        </g>
    </g>
</svg>