<?xml version="1.0" encoding="UTF-8"?>
<svg width="24px" height="24px" viewBox="0 0 24 24" version="1.1" xmlns="http://www.w3.org/2000/svg" xmlns:xlink="http://www.w3.org/1999/xlink">
    <!-- Generator: Sketch 51.3 (57544) - http://www.bohemiancoding.com/sketch -->
    <title>eye-hidden</title>
    <desc>Created with Sketch.</desc>
    <defs></defs>
    <g id="Symbols" stroke="none" stroke-width="1" fill="none" fill-rule="evenodd">
        <g id="icon/eye/hidden" fill="#000000" fill-rule="nonzero">
            <g id="view-off" transform="translate(0.000000, 1.000000)">
                <path d="M23.2,9.549 C21.9344481,8.16174905 20.4881651,6.95090746 18.9,5.949 L22.9,1.954 C23.1599566,1.70292553 23.2642126,1.33112211 23.1726972,0.981492676 C23.0811817,0.631863244 22.8081368,0.358818284 22.4585073,0.267302843 C22.1088779,0.175787403 21.7370745,0.280043416 21.486,0.54 L21.468,0.558 C21.4336949,0.667109926 21.3744657,0.76673812 21.295,0.849 L1.795,20.349 C1.787,20.356 1.777,20.358 1.769,20.366 C1.58822916,20.8064827 1.74309652,21.3133341 2.13918878,21.5775575 C2.53528104,21.8417809 3.06273762,21.790091 3.4,21.454 L7.546,17.308 C8.90670722,17.9020979 10.3714759,18.2212204 11.856,18.247 L12.156,18.247 C16.412,18.247 20.645,15.263 23.207,12.447 C23.9441102,11.6205894 23.9410939,10.37184 23.2,9.549 Z M16.313,12.27 C15.8720787,13.7114316 14.7502733,14.8437071 13.313,15.298 C12.2920826,15.6230906 11.1865752,15.5553337 10.213,15.108 C10.1392424,15.0722197 10.087393,15.0029198 10.0738836,14.9220624 C10.0603743,14.8412051 10.0868797,14.7588139 10.145,14.701 L15.705,9.142 C15.7624676,9.08336179 15.8448984,9.05639575 15.9259114,9.06973204 C16.0069244,9.08306834 16.0763615,9.13503474 16.112,9.209 C16.5530484,10.169922 16.6246055,11.2596552 16.313,12.27 Z" id="Shape"></path>
                <path d="M7.615,12.4 C7.67743389,12.3370281 7.70078853,12.245141 7.676,12.16 C7.56479322,11.7831499 7.50557931,11.3928764 7.5,11 C7.5,8.51471863 9.51471863,6.5 12,6.5 C12.3927773,6.5041134 12.7831147,6.56232751 13.16,6.673 C13.2453219,6.69753428 13.3372367,6.67378963 13.4,6.611 L15.341,4.669 C15.4034369,4.6066632 15.4290528,4.51639151 15.4086633,4.43055148 C15.3882737,4.34471144 15.3247999,4.27560122 15.241,4.248 C14.193747,3.91187666 13.0998542,3.74379316 12,3.75 C7.7,3.692 3.4,6.7 0.813,9.549 C0.0609492981,10.3683554 0.0579135474,11.6260236 0.806,12.449 C1.83920011,13.5802078 2.99192732,14.5961367 4.244,15.479 C4.34546374,15.549129 4.48250847,15.5369379 4.57,15.45 L7.615,12.4 Z" id="Shape"></path>
            </g>
        </g>
    </g>
</svg>