<?xml version="1.0" encoding="UTF-8"?>
<svg width="24px" height="24px" viewBox="0 0 24 24" version="1.1" xmlns="http://www.w3.org/2000/svg" xmlns:xlink="http://www.w3.org/1999/xlink">
    <!-- Generator: Sketch 51.3 (57544) - http://www.bohemiancoding.com/sketch -->
    <title>file-xls</title>
    <desc>Created with Sketch.</desc>
    <defs></defs>
    <g id="Symbols" stroke="none" stroke-width="1" fill="none" fill-rule="evenodd">
        <g id="icon/file/xls" fill="#000000" fill-rule="nonzero">
            <g id="file-xls" transform="translate(2.000000, 0.000000)">
                <path d="M15.5,6 L19.4,6 C19.5012544,6.00018116 19.5926192,5.93926856 19.6313922,5.84573164 C19.6701651,5.75219472 19.6486884,5.6445071 19.577,5.573 L14.427,0.425 C14.3557504,0.353566137 14.2485457,0.331961198 14.1551894,0.370222017 C14.061833,0.408482836 14.0006248,0.499109381 14,0.6 L14,4.5 C14,5.32842712 14.6715729,6 15.5,6 Z" id="Shape"></path>
                <path d="M19.75,7 C19.8872939,6.99999561 19.9989016,7.1107105 20,7.248 L20,22 C20,23.1045695 19.1045695,24 18,24 L2,24 C0.8954305,24 0,23.1045695 0,22 L0,2 C0,0.8954305 0.8954305,-6.76353751e-17 2,0 L12.75,0 C12.8872939,-4.39347438e-06 12.9989016,0.110710498 13,0.248 L13,4.5 C13,5.88071187 14.1192881,7 15.5,7 L19.75,7 Z M7.2385,17 L8.4285,17 L6.7345,14.599 L8.3235,12.331 L7.1265,12.331 L6.0695,13.927 L4.9985,12.331 L3.8155,12.331 L5.4045,14.606 L3.7105,17 L4.8935,17 L6.0695,15.292 L7.2385,17 Z M8.8695,17 L11.8375,17 L11.8375,16.125 L9.8635,16.125 L9.8635,12.331 L8.8695,12.331 L8.8695,17 Z M12.2085,16.342 C12.6495,16.783 13.2935,17.084 14.1895,17.084 C15.4495,17.084 16.0585,16.44 16.0585,15.586 C16.0585,14.55 15.0785,14.319 14.3085,14.144 C13.7695,14.018 13.3775,13.92 13.3775,13.605 C13.3775,13.325 13.6155,13.129 14.0635,13.129 C14.5185,13.129 15.0225,13.29 15.4005,13.64 L15.9535,12.912 C15.4915,12.485 14.8755,12.261 14.1335,12.261 C13.0345,12.261 12.3625,12.891 12.3625,13.668 C12.3625,14.711 13.3425,14.921 14.1055,15.096 C14.6445,15.222 15.0505,15.341 15.0505,15.691 C15.0505,15.957 14.7845,16.216 14.2385,16.216 C13.5945,16.216 13.0835,15.929 12.7545,15.586 L12.2085,16.342 Z" id="Combined-Shape"></path>
            </g>
        </g>
    </g>
</svg>