<?xml version="1.0" encoding="UTF-8"?>
<svg width="24px" height="24px" viewBox="0 0 24 24" version="1.1" xmlns="http://www.w3.org/2000/svg" xmlns:xlink="http://www.w3.org/1999/xlink">
    <!-- Generator: Sketch 51.3 (57544) - http://www.bohemiancoding.com/sketch -->
    <title>file-pdf</title>
    <desc>Created with Sketch.</desc>
    <defs></defs>
    <g id="Symbols" stroke="none" stroke-width="1" fill="none" fill-rule="evenodd">
        <g id="icon/file/pdf" fill="#000000" fill-rule="nonzero">
            <g id="file-pdf" transform="translate(2.000000, 0.000000)">
                <path d="M15.5,6 L19.4,6 C19.5012544,6.00018116 19.5926192,5.93926856 19.6313922,5.84573164 C19.6701651,5.75219472 19.6486884,5.6445071 19.577,5.573 L14.427,0.425 C14.3557504,0.353566137 14.2485457,0.331961198 14.1551894,0.370222017 C14.061833,0.408482836 14.0006248,0.499109381 14,0.6 L14,4.5 C14,5.32842712 14.6715729,6 15.5,6 Z" id="Shape"></path>
                <path d="M19.75,7 C19.8872939,6.99999561 19.9989016,7.1107105 20,7.248 L20,22 C20,23.1045695 19.1045695,24 18,24 L2,24 C0.8954305,24 0,23.1045695 0,22 L0,2 C0,0.8954305 0.8954305,-6.76353751e-17 2,0 L12.75,0 C12.8872939,-4.39347438e-06 12.9989016,0.110710498 13,0.248 L13,4.5 C13,5.88071187 14.1192881,7 15.5,7 L19.75,7 Z M3.7665,17 L4.7605,17 L4.7605,15.327 L5.9505,15.327 C6.9585,15.327 7.5185,14.648 7.5185,13.836 C7.5185,13.017 6.9655,12.331 5.9505,12.331 L3.7665,12.331 L3.7665,17 Z M6.5035,13.829 C6.5035,14.221 6.2095,14.473 5.8175,14.473 L4.7605,14.473 L4.7605,13.185 L5.8175,13.185 C6.2095,13.185 6.5035,13.444 6.5035,13.829 Z M8.1345,17 L9.9755,17 C11.4385,17 12.4535,16.076 12.4535,14.669 C12.4535,13.262 11.4385,12.331 9.9755,12.331 L8.1345,12.331 L8.1345,17 Z M9.1285,16.125 L9.1285,13.206 L9.9755,13.206 C10.9345,13.206 11.4385,13.843 11.4385,14.669 C11.4385,15.46 10.8995,16.125 9.9755,16.125 L9.1285,16.125 Z M13.1605,17 L14.1545,17 L14.1545,15.054 L16.4155,15.054 L16.4155,14.2 L14.1545,14.2 L14.1545,13.185 L16.4645,13.185 L16.4645,12.331 L13.1605,12.331 L13.1605,17 Z" id="Combined-Shape"></path>
            </g>
        </g>
    </g>
</svg>