<?xml version="1.0" encoding="UTF-8"?>
<svg width="24px" height="24px" viewBox="0 0 24 24" version="1.1" xmlns="http://www.w3.org/2000/svg" xmlns:xlink="http://www.w3.org/1999/xlink">
    <!-- Generator: Sketch 51.3 (57544) - http://www.bohemiancoding.com/sketch -->
    <title>file-sheet</title>
    <desc>Created with Sketch.</desc>
    <defs></defs>
    <g id="Symbols" stroke="none" stroke-width="1" fill="none" fill-rule="evenodd">
        <g id="icon/file/sheet" fill="#000000" fill-rule="nonzero">
            <g id="office-file-sheet" transform="translate(2.000000, 0.000000)">
                <path d="M19.707,5.705 L14.293,0.291 C14.1051803,0.10418385 13.8509081,-0.000474162298 13.586,5.55111724e-16 L2,5.55111724e-16 C0.8954305,4.87476143e-16 0,0.8954305 0,2 L0,22 C0,23.1045695 0.8954305,24 2,24 L18,24 C19.1045695,24 20,23.1045695 20,22 L20,6.412 C19.9999434,6.14680519 19.8945494,5.89249273 19.707,5.705 Z M18,21.5 C18,21.7761424 17.7761424,22 17.5,22 L2.5,22 C2.22385763,22 2,21.7761424 2,21.5 L2,2.5 C2,2.22385763 2.22385763,2 2.5,2 L12.75,2 C12.8880712,2 13,2.11192881 13,2.25 L13,5 C13,6.1045695 13.8954305,7 15,7 L17.75,7 C17.8880712,7 18,7.11192881 18,7.25 L18,21.5 Z" id="Shape"></path>
                <rect id="Rectangle-path" x="4.5" y="10.498" width="3" height="2" rx="0.5"></rect>
                <rect id="Rectangle-path" x="4.5" y="13.998" width="3" height="2" rx="0.5"></rect>
                <rect id="Rectangle-path" x="4.5" y="17.498" width="3" height="2" rx="0.5"></rect>
                <rect id="Rectangle-path" x="9" y="10.498" width="6.5" height="2" rx="0.5"></rect>
                <rect id="Rectangle-path" x="9" y="13.998" width="6.5" height="2" rx="0.5"></rect>
                <rect id="Rectangle-path" x="9" y="17.498" width="6.5" height="2" rx="0.5"></rect>
            </g>
        </g>
    </g>
</svg>