<?xml version="1.0" encoding="UTF-8"?>
<svg width="24px" height="24px" viewBox="0 0 24 24" version="1.1" xmlns="http://www.w3.org/2000/svg" xmlns:xlink="http://www.w3.org/1999/xlink">
    <!-- Generator: Sketch 51.3 (57544) - http://www.bohemiancoding.com/sketch -->
    <title>pin-user</title>
    <desc>Created with Sketch.</desc>
    <defs></defs>
    <g id="Symbols" stroke="none" stroke-width="1" fill="none" fill-rule="evenodd">
        <g id="icon/utility/pin-user" fill="#000000" fill-rule="nonzero">
            <g id="style-one-pin-user" transform="translate(2.000000, 0.000000)">
                <path d="M10,-4.3094347e-16 C5.54067066,-0.00218285633 1.68002181,3.09758176 0.718714513,7.4520635 C-0.242592786,11.8065452 1.95421376,16.2435703 6,18.119 C6.53769167,18.3695411 6.96922314,18.8024898 7.218,19.341 L9.09,23.417 C9.25319175,23.771786 9.60798153,23.9991151 9.9985,23.9991151 C10.3890185,23.9991151 10.7438082,23.771786 10.907,23.417 L12.783,19.338 C13.0312627,18.7999557 13.4625686,18.3675866 14,18.118 C18.0445454,16.2419148 20.2402781,11.8055971 19.2791034,7.45195653 C18.3179287,3.09831591 14.4584798,-0.0011695205 10,-4.3094347e-16 Z M10,2.5 C11.6568542,2.5 13,3.84314575 13,5.5 C13,7.15685425 11.6568542,8.5 10,8.5 C8.34314575,8.5 7,7.15685425 7,5.5 C7,3.84314575 8.34314575,2.5 10,2.5 Z M14,14.5 L6,14.5 C5.72385763,14.5 5.5,14.2761424 5.5,14 C5.5,11.5147186 7.51471863,9.5 10,9.5 C12.4852814,9.5 14.5,11.5147186 14.5,14 C14.5,14.1326082 14.4473216,14.2597852 14.3535534,14.3535534 C14.2597852,14.4473216 14.1326082,14.5 14,14.5 Z" id="Shape"></path>
            </g>
        </g>
    </g>
</svg>