<?xml version="1.0" encoding="UTF-8"?>
<svg width="24px" height="24px" viewBox="0 0 24 24" version="1.1" xmlns="http://www.w3.org/2000/svg" xmlns:xlink="http://www.w3.org/1999/xlink">
    <!-- Generator: Sketch 51.3 (57544) - http://www.bohemiancoding.com/sketch -->
    <title>pin</title>
    <desc>Created with Sketch.</desc>
    <defs></defs>
    <g id="Symbols" stroke="none" stroke-width="1" fill="none" fill-rule="evenodd">
        <g id="icon/utility/pin" fill="#000000" fill-rule="nonzero">
            <g id="style-one-pin" transform="translate(2.000000, 0.000000)">
                <path d="M10,-4.3094347e-16 C5.54067066,-0.00218285633 1.68002181,3.09758176 0.718714513,7.4520635 C-0.242592786,11.8065452 1.95421376,16.2435703 6,18.119 C6.53814758,18.3688905 6.96987525,18.802036 7.218,19.341 L9.091,23.417 C9.25419175,23.771786 9.60898153,23.9991151 9.9995,23.9991151 C10.3900185,23.9991151 10.7448082,23.771786 10.908,23.417 L12.784,19.337 C13.0322071,18.7995006 13.4631138,18.3675308 14,18.118 C18.0445454,16.2419148 20.2402781,11.8055971 19.2791034,7.45195653 C18.3179287,3.09831591 14.4584798,-0.0011695205 10,-4.3094347e-16 Z M10,14.3722023 C7.30915695,14.3722023 5.12779767,12.190843 5.12779767,9.5 C5.12779767,6.80915695 7.30915695,4.62779767 10,4.62779767 C12.690843,4.62779767 14.8722023,6.80915695 14.8722023,9.5 C14.869195,12.1895964 12.6895964,14.369195 10,14.3722023 Z" id="Shape"></path>
            </g>
        </g>
    </g>
</svg>