<?xml version="1.0" encoding="UTF-8"?>
<svg width="24px" height="24px" viewBox="0 0 24 24" version="1.1" xmlns="http://www.w3.org/2000/svg" xmlns:xlink="http://www.w3.org/1999/xlink">
    <!-- Generator: Sketch 51.3 (57544) - http://www.bohemiancoding.com/sketch -->
    <title>pin</title>
    <desc>Created with Sketch.</desc>
    <defs></defs>
    <g id="Symbols" stroke="none" stroke-width="1" fill="none" fill-rule="evenodd">
        <g id="icon/utility/pin" fill="#000000" fill-rule="nonzero">
            <g id="pin" transform="translate(4.000000, 0.000000)">
                <path d="M8,-8.87179219e-16 C3.58377808,0.00495988455 0.00495988455,3.58377808 0,8 C0,11.51 5,20.025 7.148,23.524 C7.33003849,23.8198884 7.65259829,24.0000979 8,24 C8.34806064,24.0016551 8.67147397,23.8205891 8.852,23.523 C11,20.026 16,11.514 16,8 C15.9950401,3.58377808 12.4162219,0.00495988455 8,-8.87179219e-16 Z M8,11.5 C6.06700338,11.5 4.5,9.93299662 4.5,8 C4.5,6.06700338 6.06700338,4.5 8,4.5 C9.93299662,4.5 11.5,6.06700338 11.5,8 C11.5,9.93299662 9.93299662,11.5 8,11.5 Z" id="Shape"></path>
            </g>
        </g>
    </g>
</svg>