<?xml version="1.0" encoding="UTF-8"?>
<svg width="24px" height="24px" viewBox="0 0 24 24" version="1.1" xmlns="http://www.w3.org/2000/svg" xmlns:xlink="http://www.w3.org/1999/xlink">
    <!-- Generator: Sketch 52.1 (67048) - http://www.bohemiancoding.com/sketch -->
    <title>icon/utility/refresh</title>
    <desc>Created with Sketch.</desc>
    <g id="icon/utility/refresh" stroke="none" stroke-width="1" fill="none" fill-rule="evenodd">
        <g id="synchronize-arrow" transform="translate(12.000000, 12.000000) scale(-1, 1) translate(-12.000000, -12.000000) translate(1.000000, 2.000000)" fill="#000000">
            <path d="M11.4217985,0.00927872396 C7.33082673,0.171718092 3.74595121,2.79611614 2.35506011,6.646812 C2.31799621,6.7509312 2.21228347,6.81412479 2.10302543,6.7974748 L0.53222626,6.5659005 C0.356866474,6.54383113 0.183569775,6.61993876 0.0811678828,6.76399418 C-0.0195219332,6.91123601 -0.0271097607,7.10309965 0.0616375201,7.25783335 L2.55315379,11.6289145 C2.62502177,11.7543889 2.75117033,11.83929 2.89447013,11.8586288 C2.91521629,11.8600476 2.93603513,11.8600476 2.95678129,11.8586288 C3.07954903,11.8583569 3.1972279,11.8095469 3.28414737,11.7228463 L6.79031249,8.23900157 C6.91497281,8.11497562 6.95900716,7.931238 6.90410792,7.76417901 C6.84920867,7.59712002 6.70476779,7.47531949 6.53083767,7.44941691 L4.93585805,7.2122625 C4.86384672,7.20140352 4.80102907,7.15755896 4.76600316,7.09370965 C4.73097725,7.02986034 4.7277566,6.95332257 4.75729473,6.88675646 C6.29072081,3.41496937 10.1299659,1.58363613 13.7931127,2.57663988 C17.4562595,3.56964362 19.8449752,7.08924888 19.4150514,10.8601727 C18.9851275,14.6310966 15.8654695,17.5226909 12.0728106,17.6656566 C9.53026922,17.7655744 7.10469648,16.5937547 5.60268043,14.5398686 C5.20978182,14.0643773 4.5139208,13.9785161 4.01722574,14.3442418 C3.52053069,14.7099675 3.39593485,15.3999462 3.73334571,15.9162942 C5.61686517,18.4830793 8.61009194,19.9995509 11.7938054,20 C11.9165677,20 12.04026,20 12.1658123,19.9925599 C15.7509712,19.8825399 19.0025211,17.8605602 20.6868195,14.6937626 C22.371118,11.526965 22.23008,7.70059763 20.3172156,4.6663896 C18.4043512,1.63218158 15.0127685,-0.144935611 11.4292386,0.00927872396 L11.4217985,0.00927872396 Z" id="Path"></path>
        </g>
    </g>
</svg>