<?xml version="1.0" encoding="UTF-8"?>
<svg width="24px" height="24px" viewBox="0 0 24 24" version="1.1" xmlns="http://www.w3.org/2000/svg" xmlns:xlink="http://www.w3.org/1999/xlink">
    <!-- Generator: Sketch 51.3 (57544) - http://www.bohemiancoding.com/sketch -->
    <title>thumbs-up</title>
    <desc>Created with Sketch.</desc>
    <defs></defs>
    <g id="Symbols" stroke="none" stroke-width="1" fill="none" fill-rule="evenodd">
        <g id="icon/thumbs/up" fill="#000000" fill-rule="nonzero">
            <g id="like-1">
                <path d="M24,10.034 C24,9.37095878 23.7366079,8.73507399 23.267767,8.26623305 C22.798926,7.7973921 22.1630412,7.534 21.5,7.534 L15.189,7.534 C15.1089273,7.53383334 15.0337795,7.49532131 14.9868831,7.43041829 C14.9399867,7.36551527 14.9270171,7.28207579 14.952,7.206 C15.5040311,5.80681398 15.6832134,4.28824436 15.472,2.799 C14.884,0.699 13.638,0.099 12.664,0.234 C11.6729959,0.402098875 10.9607152,1.27960814 11,2.284 C11,5.03 8.871,8.03 6.966,9.345 C6.83060822,9.43843836 6.74984025,9.59249579 6.75,9.757 L6.75,19.873 C6.74994828,20.1125535 6.9198102,20.3184848 7.155,20.364 C7.512,20.432 7.836,20.499 8.142,20.564 C9.48768049,20.8840904 10.8667929,21.0422117 12.25,21.035 L18.75,21.035 C20.708,21.035 21,19.935 21,19.285 C21.0004068,18.9399976 20.9213647,18.5995348 20.769,18.29 C21.866897,17.7319475 22.3124862,16.3951802 21.769,15.29 C22.3102402,15.0150068 22.7173871,14.5329665 22.8979746,13.9533542 C23.0785621,13.3737418 23.0172634,12.7457499 22.728,12.212 C23.5139949,11.7687624 24.0001382,10.9363566 24,10.034 Z" id="Shape"></path>
                <path d="M5.25,9.784 C5.25,9.23171525 4.80228475,8.784 4.25,8.784 L1,8.784 C0.44771525,8.784 6.76353751e-17,9.23171525 0,9.784 L0,20.784 C6.76353751e-17,21.3362847 0.44771525,21.784 1,21.784 L4.25,21.784 C4.80228475,21.784 5.25,21.3362847 5.25,20.784 L5.25,9.784 Z M3.75,19.034 C3.75,19.4482136 3.41421356,19.784 3,19.784 C2.58578644,19.784 2.25,19.4482136 2.25,19.034 C2.25,18.6197864 2.58578644,18.284 3,18.284 C3.41421356,18.284 3.75,18.6197864 3.75,19.034 Z" id="Shape"></path>
            </g>
        </g>
    </g>
</svg>