<?xml version="1.0" encoding="UTF-8"?>
<svg width="24px" height="24px" viewBox="0 0 24 24" version="1.1" xmlns="http://www.w3.org/2000/svg" xmlns:xlink="http://www.w3.org/1999/xlink">
    <!-- Generator: Sketch 51.3 (57544) - http://www.bohemiancoding.com/sketch -->
    <title>trash</title>
    <desc>Created with Sketch.</desc>
    <defs></defs>
    <g id="Symbols" stroke="none" stroke-width="1" fill="none" fill-rule="evenodd">
        <g id="icon/utility/trash" fill="#000000" fill-rule="nonzero">
            <g id="bin" transform="translate(1.000000, 0.000000)">
                <path d="M18.5,7.5 L3.5,7.5 C3.22385763,7.5 3,7.72385763 3,8 L3,22 C3,23.1045695 3.8954305,24 5,24 L17,24 C18.1045695,24 19,23.1045695 19,22 L19,8 C19,7.72385763 18.7761424,7.5 18.5,7.5 Z M9.25,20.5 C9.25,20.9142136 8.91421356,21.25 8.5,21.25 C8.08578644,21.25 7.75,20.9142136 7.75,20.5 L7.75,11.5 C7.75,11.0857864 8.08578644,10.75 8.5,10.75 C8.91421356,10.75 9.25,11.0857864 9.25,11.5 L9.25,20.5 Z M14.25,20.5 C14.25,20.9142136 13.9142136,21.25 13.5,21.25 C13.0857864,21.25 12.75,20.9142136 12.75,20.5 L12.75,11.5 C12.75,11.0857864 13.0857864,10.75 13.5,10.75 C13.9142136,10.75 14.25,11.0857864 14.25,11.5 L14.25,20.5 Z" id="Shape"></path>
                <path d="M21,4 L16.25,4 C16.1119288,4 16,3.88807119 16,3.75 L16,2.5 C16,1.11928813 14.8807119,8.45442189e-17 13.5,0 L8.5,0 C7.11928813,-8.45442189e-17 6,1.11928813 6,2.5 L6,3.75 C6,3.81630412 5.97366079,3.8798926 5.9267767,3.9267767 C5.8798926,3.97366079 5.81630412,4 5.75,4 L1,4 C0.44771525,4 0,4.44771525 0,5 C-1.11022302e-16,5.55228475 0.44771525,6 1,6 L21,6 C21.5522847,6 22,5.55228475 22,5 C22,4.44771525 21.5522847,4 21,4 Z M8,3.75 L8,2.5 C8,2.22385763 8.22385763,2 8.5,2 L13.5,2 C13.7761424,2 14,2.22385763 14,2.5 L14,3.75 C14,3.88807119 13.8880712,4 13.75,4 L8.25,4 C8.11192881,4 8,3.88807119 8,3.75 Z" id="Shape"></path>
            </g>
        </g>
    </g>
</svg>