<?xml version="1.0" encoding="UTF-8"?>
<svg width="24px" height="24px" viewBox="0 0 24 24" version="1.1" xmlns="http://www.w3.org/2000/svg" xmlns:xlink="http://www.w3.org/1999/xlink">
    <!-- Generator: Sketch 51.3 (57544) - http://www.bohemiancoding.com/sketch -->
    <title>upload</title>
    <desc>Created with Sketch.</desc>
    <defs></defs>
    <g id="Symbols" stroke="none" stroke-width="1" fill="none" fill-rule="evenodd">
        <g id="icon/utility/upload" fill="#000000" fill-rule="nonzero">
            <g id="upload-bottom" transform="translate(-1.000000, 0.000000)">
                <path d="M1,19.59 C1.00220496,21.817555 2.807445,23.622795 5.035,23.625 L20.965,23.625 C23.192555,23.622795 24.997795,21.817555 25,19.59 L25,17.716 C25.0127415,17.2701845 24.7821799,16.8526713 24.398076,16.626004 C24.0139722,16.3993368 23.5370278,16.3993368 23.152924,16.626004 C22.7688201,16.8526713 22.5382585,17.2701845 22.551,17.716 L22.551,19.59 C22.5498981,20.4654668 21.8404668,21.1748981 20.965,21.176 L5.035,21.176 C4.15953322,21.1748981 3.45010191,20.4654668 3.449,19.59 L3.449,17.716 C3.46174149,17.2701845 3.23117989,16.8526713 2.84707604,16.626004 C2.4629722,16.3993368 1.9860278,16.3993368 1.60192396,16.626004 C1.21782011,16.8526713 0.987258513,17.2701845 1,17.716 L1,19.59 Z" id="Shape"></path>
                <path d="M13,19.322 C14.0819258,19.322 14.959,18.4449258 14.959,17.363 L14.959,8.2 C14.959,8.06192881 15.0709288,7.95 15.209,7.95 L17.9,7.95 C18.2838724,7.95029978 18.6324997,7.72622393 18.7916556,7.37689949 C18.9508114,7.02757504 18.8911248,6.61746716 18.639,6.328 L13.739,0.7 C13.5477985,0.495198885 13.2801812,0.378927532 13,0.378927532 C12.7198188,0.378927532 12.4522015,0.495198885 12.261,0.7 L7.361,6.333 C7.11147611,6.6226247 7.0533619,7.03099815 7.21218533,7.37873334 C7.37100875,7.72646853 7.71771276,7.94994664 8.1,7.951 L10.791,7.951 C10.9290712,7.951 11.041,8.06292881 11.041,8.201 L11.041,17.363 C11.041,18.4449258 11.9180742,19.322 13,19.322 Z" id="Shape"></path>
            </g>
        </g>
    </g>
</svg>